<svg width="800" height="600" xmlns="http://www.w3.org/2000/svg">
 <title>FastForward Logo</title>
 <g>
  <title>Layer 1</title>
  <g stroke-width="20" id="svg_3">
   <path transform="rotate(-135, 463.741, 300)" id="svg_1" d="m374.74134,388.99992l0,-178l177.99999,178l-177.99999,0z" stroke-width="20" stroke="#000" fill="#fff"/>
   <path transform="rotate(-135, 635.788, 300.001)" id="svg_2" d="m546.78785,389.00096l0,-178l177.99999,178l-177.99999,0z" stroke-width="20" stroke="#000" fill="#fff"/>
  </g>
  <g id="svg_11">
   <rect transform="rotate(-90, 300.278, 300)" id="svg_5" height="68" width="199" y="265.99999" x="200.77818" stroke-width="20" stroke="#000" fill="#fff"/>
   <ellipse transform="rotate(-90, 84.2757, 301.5)" ry="64" rx="64" id="svg_6" cy="301.5" cx="84.27572" stroke-width="20" stroke="#000" fill="#fff"/>
   <path transform="rotate(-90, 149.177, 302.5)" id="svg_7" d="m149.17672,302.49999" opacity="NaN" stroke-width="20" stroke="#000" fill="#fff"/>
   <line transform="rotate(-90, 208.677, 304)" id="svg_8" y2="361.49999" x2="208.17672" y1="246.49999" x1="209.17672" stroke-width="20" stroke="#000" fill="none"/>
   <line transform="rotate(-90, 232.677, 331)" id="svg_9" y2="361.49999" x2="256.17672" y1="300.49999" x1="209.17672" stroke-width="20" stroke="#000" fill="none"/>
   <line transform="rotate(-15, 235.677, 281)" id="svg_10" y2="311.49996" x2="259.17668" y1="250.49996" x1="212.17668" stroke-width="20" stroke="#000" fill="none"/>
   <line transform="rotate(-90, 398.531, 302.551)" id="svg_12" y2="360.05072" x2="398.03108" y1="245.05072" x1="399.03108" stroke-width="20" stroke="#000" fill="none"/>
   <line transform="rotate(-90, 422.531, 329.551)" id="svg_13" y2="360.05072" x2="446.03108" y1="299.05072" x1="399.03108" stroke-width="20" stroke="#000" fill="none"/>
   <line transform="rotate(-15, 425.531, 279.551)" id="svg_14" y2="310.05069" x2="449.03104" y1="249.05069" x1="402.03104" stroke-width="20" stroke="#000" fill="none"/>
  </g>
 </g>

</svg>
